<svg width="430" height="95" viewBox="0 0 430 95" fill="none" xmlns="http://www.w3.org/2000/svg">
<path d="M54.7 94.4C54.0333 94.4 53.4 94.2667 52.8 94C52.2667 93.8 52 93.4333 52 92.9C51.5333 89.9 50.9667 86.2 50.3 81.8C49.7 77.4 49 72.6333 48.2 67.5C47.4 62.3667 46.5333 57.2 45.6 52C44.7333 46.8 43.8 41.8333 42.8 37.1C41.8 32.3667 40.7333 28.2 39.6 24.6C38.5333 20.9333 37.4 18.2 36.2 16.4C37.4 15.6667 38.6333 15.0667 39.9 14.6C41.2333 14.0667 42.3333 13.8 43.2 13.8C44.2 13.8 45.0667 13.9667 45.8 14.3C46.6 14.6333 47.3333 15.4667 48 16.8C48.7333 18.1333 49.4667 20.2667 50.2 23.2C50.9333 26.0667 51.7333 30.0333 52.6 35.1C53.4667 40.1667 54.4667 46.6667 55.6 54.6L59.7 82.9C60.9 79.9 62.2667 76.3667 63.8 72.3C65.4 68.1667 67.0667 63.7667 68.8 59.1C70.6 54.3667 72.3333 49.6333 74 44.9C75.6667 40.1667 77.2 35.6667 78.6 31.4C80 27.0667 81.1333 23.2333 82 19.9C82.9333 16.5667 83.4333 14.0333 83.5 12.3C85.9 12.9667 87.8667 13.9 89.4 15.1C90.9333 16.3 91.7 17.7 91.7 19.3C91.7 20.5667 91.2333 22.6 90.3 25.4C89.3667 28.2 88.1333 31.5333 86.6 35.4C85.0667 39.2 83.3333 43.3333 81.4 47.8C79.5333 52.2 77.5667 56.6667 75.5 61.2C73.5 65.6667 71.5667 69.9667 69.7 74.1C67.8333 78.2333 66.1667 81.9333 64.7 85.2C63.3 88.4667 62.2333 91.0667 61.5 93C61.3 93.1333 60.7667 93.3 59.9 93.5C59.1 93.7667 58.2 93.9667 57.2 94.1C56.2667 94.3 55.4333 94.4 54.7 94.4ZM19.4 94.4C18.7333 94.4 18.1 94.2667 17.5 94C16.9667 93.8 16.7 93.4333 16.7 92.9C16.2333 89.9 15.6667 86.2 15 81.8C14.4 77.4 13.7 72.6333 12.9 67.5C12.1667 62.3667 11.3333 57.2 10.4 52C9.53333 46.8 8.56667 41.8333 7.5 37.1C6.5 32.3667 5.43333 28.2 4.3 24.6C3.23333 20.9333 2.1 18.2 0.9 16.4C2.1 15.6667 3.33333 15.0667 4.6 14.6C5.93333 14.0667 7.03333 13.8 7.9 13.8C8.9 13.8 9.76667 13.9667 10.5 14.3C11.3 14.6333 12.0333 15.4667 12.7 16.8C13.4333 18.1333 14.1667 20.2667 14.9 23.2C15.6333 26.0667 16.4333 30.0333 17.3 35.1C18.1667 40.1667 19.1667 46.6667 20.3 54.6L24.4 82.9C25.4667 80.2333 26.7 77.1 28.1 73.5C29.5 69.8333 30.9667 65.9333 32.5 61.8C34.1 57.6667 35.6667 53.4667 37.2 49.2C38.7333 44.9333 40.1667 40.8333 41.5 36.9C42.8333 32.9 43.9667 29.3 44.9 26.1L49.5 39.8C47.9667 43.5333 46.2667 47.5 44.4 51.7C42.6 55.8333 40.7667 59.9667 38.9 64.1C37.0333 68.2333 35.2667 72.1667 33.6 75.9C31.9333 79.6333 30.4333 83 29.1 86C27.8333 88.9333 26.8667 91.2667 26.2 93C26 93.1333 25.4667 93.3 24.6 93.5C23.8 93.7667 22.9 93.9667 21.9 94.1C20.9667 94.3 20.1333 94.4 19.4 94.4ZM114.159 94.5C110.626 94.5 107.459 93.4667 104.659 91.4C101.926 89.3333 99.7594 86.4667 98.1594 82.8C96.626 79.0667 95.8594 74.8333 95.8594 70.1C95.8594 65.1667 96.5594 60.6 97.9594 56.4C99.426 52.1333 101.459 48.4333 104.059 45.3C106.659 42.1667 109.693 39.7333 113.159 38C116.693 36.2 120.493 35.3 124.559 35.3C129.493 35.3 133.226 36.5333 135.759 39C138.293 41.4667 139.559 45.0667 139.559 49.8C139.559 53.3333 138.593 56.5333 136.659 59.4C134.726 62.2 132.059 64.4 128.659 66C125.326 67.6 121.493 68.4 117.159 68.4C115.026 68.4 113.026 68.3 111.159 68.1C109.293 67.8333 107.493 67.5 105.759 67.1L106.059 63.6H109.759C113.626 63.6 116.993 62.9667 119.859 61.7C122.726 60.3667 124.959 58.5 126.559 56.1C128.159 53.7 128.959 50.9333 128.959 47.8C128.959 45.4667 128.393 43.6667 127.259 42.4C126.193 41.1333 124.659 40.5 122.659 40.5C120.126 40.5 117.859 41.4667 115.859 43.4C113.859 45.2667 112.159 47.7333 110.759 50.8C109.359 53.8 108.293 57.0333 107.559 60.5C106.826 63.9667 106.459 67.2667 106.459 70.4C106.459 76.2667 107.326 80.7 109.059 83.7C110.859 86.6333 113.493 88.1 116.959 88.1C123.493 88.1 128.859 84.8333 133.059 78.3C135.526 78.7 136.759 79.6 136.759 81C133.893 85.6667 130.626 89.1 126.959 91.3C123.359 93.4333 119.093 94.5 114.159 94.5ZM151.659 81.3C151.659 79.1 151.892 75.9667 152.359 71.9C152.825 67.8333 153.392 63.2333 154.059 58.1C154.725 52.9667 155.359 47.6333 155.959 42.1C156.625 36.5667 157.192 31.2 157.659 26C158.125 20.8 158.359 16.1667 158.359 12.1C158.359 9.36666 158.259 7 158.059 4.99999C157.859 2.93333 157.559 1.39999 157.159 0.399994C159.692 1.33333 161.692 2.56666 163.159 4.09999C164.692 5.63333 165.759 7.53333 166.359 9.8C167.025 12.0667 167.359 14.7667 167.359 17.9C167.359 20.9667 167.059 24.9667 166.459 29.9C165.859 34.8333 165.192 40.3667 164.459 46.5C163.725 52.6333 163.059 59.0333 162.459 65.7C161.859 72.3667 161.559 78.9667 161.559 85.5C161.559 87.0333 161.592 88.5667 161.659 90.1C161.792 91.5667 161.892 93.0333 161.959 94.5C159.492 94.3667 157.559 93.9667 156.159 93.3C154.759 92.6333 153.725 91.7333 153.059 90.6C152.459 89.4667 152.059 88.1333 151.859 86.6C151.725 85 151.659 83.2333 151.659 81.3ZM190.741 70.4C190.741 75.8667 191.608 80.2 193.341 83.4C195.075 86.5333 197.541 88.1 200.741 88.1C203.275 88.1 205.941 87.2667 208.741 85.6C211.541 83.8667 213.941 81.4333 215.941 78.3C217.008 78.4333 217.875 78.7 218.541 79.1C219.275 79.4333 219.641 80.0667 219.641 81C217.708 84.5333 215.475 87.3 212.941 89.3C210.408 91.2333 207.841 92.5667 205.241 93.3C202.708 94.1 200.375 94.5 198.241 94.5C195.108 94.5 192.141 93.6667 189.341 92C186.541 90.3333 184.275 87.7667 182.541 84.3C180.808 80.7667 179.941 76.3 179.941 70.9C179.941 66.2333 180.575 61.7667 181.841 57.5C183.175 53.2333 185.075 49.4333 187.541 46.1C190.075 42.7667 193.108 40.1333 196.641 38.2C200.241 36.2667 204.308 35.3 208.841 35.3C212.308 35.3 215.108 35.9333 217.241 37.2C219.375 38.4 220.941 40 221.941 42C222.941 43.9333 223.441 45.9667 223.441 48.1C223.441 50.0333 223.041 51.9 222.241 53.7C221.441 55.4333 220.308 56.8667 218.841 58C217.375 59.1333 215.641 59.7 213.641 59.7C212.975 59.7 212.208 59.6333 211.341 59.5C210.541 59.3667 209.775 59.1333 209.041 58.8C210.108 57.6667 211.008 56 211.741 53.8C212.541 51.6 212.941 49.4667 212.941 47.4C212.941 45.5333 212.508 43.9333 211.641 42.6C210.841 41.2 209.375 40.5 207.241 40.5C204.708 40.5 202.408 41.4 200.341 43.2C198.341 45 196.608 47.3667 195.141 50.3C193.741 53.2333 192.641 56.4667 191.841 60C191.108 63.4667 190.741 66.9333 190.741 70.4ZM254.734 94.5C252.334 94.5 249.934 94 247.534 93C245.134 91.9333 242.934 90.3333 240.934 88.2C239 86.0667 237.434 83.3667 236.234 80.1C235.034 76.7667 234.434 72.8333 234.434 68.3C234.434 62.7667 235.234 57.7 236.834 53.1C238.5 48.5 240.834 44.5667 243.834 41.3C246.9 37.9667 250.467 35.5 254.534 33.9C255.267 33.9 255.767 34.1 256.034 34.5C256.367 34.9 256.534 35.3667 256.534 35.9C254.467 37.3 252.367 39.2333 250.234 41.7C248.167 44.1667 246.534 47.5667 245.334 51.9L246.034 52.1C247.967 47.9 250.2 44.6 252.734 42.2C255.334 39.8 258 38.1 260.734 37.1C263.467 36.1 266.034 35.6 268.434 35.6C271.367 35.6 273.934 36.4667 276.134 38.2C278.334 39.9333 280.034 42.4333 281.234 45.7C282.5 48.9 283.134 52.7667 283.134 57.3C283.134 61.5667 282.6 65.9 281.534 70.3C280.467 74.6333 278.8 78.6333 276.534 82.3C274.267 85.9667 271.334 88.9333 267.734 91.2C264.134 93.4 259.8 94.5 254.734 94.5ZM255.734 88.3C258.534 88.3 261 87.4333 263.134 85.7C265.334 83.9 267.167 81.5667 268.634 78.7C270.167 75.7667 271.334 72.5667 272.134 69.1C272.934 65.6333 273.334 62.2333 273.334 58.9C273.334 52.9667 272.467 48.6667 270.734 46C269.067 43.2667 266.9 41.9 264.234 41.9C261.634 41.9 259.167 42.7667 256.834 44.5C254.567 46.2333 252.5 48.5 250.634 51.3C248.834 54.1 247.4 57.1667 246.334 60.5C245.334 63.8333 244.834 67.0667 244.834 70.2C244.834 73.3333 245.2 76.3 245.934 79.1C246.667 81.8333 247.834 84.0667 249.434 85.8C251.034 87.4667 253.134 88.3 255.734 88.3ZM311.652 55.4C313.319 51.4 315.252 47.9 317.452 44.9C319.719 41.8333 322.019 39.4667 324.352 37.8C326.752 36.1333 328.952 35.3 330.952 35.3C333.886 35.3 336.152 36.0667 337.752 37.6C339.352 39.1333 340.486 41.2 341.152 43.8C341.819 46.4 342.152 49.3333 342.152 52.6C344.686 47.1333 347.586 42.9 350.852 39.9C354.119 36.8333 357.086 35.3 359.752 35.3C362.619 35.3 364.852 35.9 366.452 37.1C368.052 38.2333 369.186 39.8667 369.852 42C370.519 44.1333 370.852 46.6333 370.852 49.5C370.852 52.3 370.652 55.1333 370.252 58C369.852 60.8 369.386 63.6 368.852 66.4C368.386 69.2 367.952 72.0333 367.552 74.9C367.152 77.7 366.952 80.5667 366.952 83.5C366.952 86.6333 367.419 88.9667 368.352 90.5C369.286 91.9667 370.719 93.2667 372.652 94.4C371.986 94.4667 371.352 94.5 370.752 94.5C370.152 94.5 369.552 94.5 368.952 94.5C364.886 94.5 361.786 93.6667 359.652 92C357.519 90.3333 356.452 87.2667 356.452 82.8C356.452 80.1333 356.786 77 357.452 73.4C358.119 69.8 358.786 66.0667 359.452 62.2C360.119 58.2667 360.452 54.6333 360.452 51.3C360.452 49.1667 360.052 47.5333 359.252 46.4C358.519 45.2667 357.386 44.7 355.852 44.7C354.186 44.7 352.352 45.6 350.352 47.4C348.352 49.2 346.419 51.8 344.552 55.2C342.752 58.5333 341.252 62.5 340.052 67.1C338.919 71.7 338.352 76.8 338.352 82.4C338.352 84.0667 338.386 85.8 338.452 87.6C338.586 89.3333 338.752 91.1333 338.952 93C338.286 93.0667 337.686 93.1 337.152 93.1C336.686 93.1667 336.252 93.2 335.852 93.2C333.052 93.2 330.886 92.5667 329.352 91.3C327.886 89.9667 327.152 87.7667 327.152 84.7C327.152 82.9667 327.352 80.7667 327.752 78.1C328.219 75.3667 328.719 72.4667 329.252 69.4C329.852 66.2667 330.352 63.1333 330.752 60C331.219 56.8667 331.452 53.9667 331.452 51.3C331.452 46.9 329.919 44.7 326.852 44.7C325.186 44.7 323.352 45.6 321.352 47.4C319.352 49.2 317.419 51.7667 315.552 55.1C313.752 58.4333 312.252 62.4 311.052 67C309.919 71.6 309.352 76.7333 309.352 82.4C309.352 84.0667 309.386 85.8 309.452 87.6C309.586 89.3333 309.752 91.1333 309.952 93C309.286 93.0667 308.686 93.1 308.152 93.1C307.686 93.1667 307.252 93.2 306.852 93.2C304.052 93.2 301.886 92.5667 300.352 91.3C298.886 89.9667 298.152 87.7667 298.152 84.7C298.152 83.5667 298.352 81.7 298.752 79.1C299.152 76.4333 299.619 73.3333 300.152 69.8C300.752 66.2667 301.252 62.6333 301.652 58.9C302.052 55.1 302.252 51.5333 302.252 48.2C302.252 45.6 302.119 43.0333 301.852 40.5C301.586 37.9667 301.152 35.5333 300.552 33.2C303.419 34.2667 305.619 35.6667 307.152 37.4C308.686 39.1333 309.752 41.1 310.352 43.3C310.952 45.4333 311.252 47.8 311.252 50.4C311.252 51.2 311.219 52 311.152 52.8C311.152 53.6 311.086 54.4333 310.952 55.3L311.652 55.4ZM403.905 94.5C400.372 94.5 397.205 93.4667 394.405 91.4C391.672 89.3333 389.505 86.4667 387.905 82.8C386.372 79.0667 385.605 74.8333 385.605 70.1C385.605 65.1667 386.305 60.6 387.705 56.4C389.172 52.1333 391.205 48.4333 393.805 45.3C396.405 42.1667 399.439 39.7333 402.905 38C406.439 36.2 410.239 35.3 414.305 35.3C419.239 35.3 422.972 36.5333 425.505 39C428.039 41.4667 429.305 45.0667 429.305 49.8C429.305 53.3333 428.339 56.5333 426.405 59.4C424.472 62.2 421.805 64.4 418.405 66C415.072 67.6 411.239 68.4 406.905 68.4C404.772 68.4 402.772 68.3 400.905 68.1C399.039 67.8333 397.239 67.5 395.505 67.1L395.805 63.6H399.505C403.372 63.6 406.739 62.9667 409.605 61.7C412.472 60.3667 414.705 58.5 416.305 56.1C417.905 53.7 418.705 50.9333 418.705 47.8C418.705 45.4667 418.139 43.6667 417.005 42.4C415.939 41.1333 414.405 40.5 412.405 40.5C409.872 40.5 407.605 41.4667 405.605 43.4C403.605 45.2667 401.905 47.7333 400.505 50.8C399.105 53.8 398.039 57.0333 397.305 60.5C396.572 63.9667 396.205 67.2667 396.205 70.4C396.205 76.2667 397.072 80.7 398.805 83.7C400.605 86.6333 403.239 88.1 406.705 88.1C413.239 88.1 418.605 84.8333 422.805 78.3C425.272 78.7 426.505 79.6 426.505 81C423.639 85.6667 420.372 89.1 416.705 91.3C413.105 93.4333 408.839 94.5 403.905 94.5Z" fill="white"/>
</svg>
